<svg width="40" height="40" viewBox="0 0 40 40" fill="none" xmlns="http://www.w3.org/2000/svg">
<path d="M32.236 9.01465C33.0531 9.01465 33.6695 9.76216 33.3398 11.1525L29.3405 30.812C29.061 32.2098 28.2511 32.5462 27.133 31.8959L17.5934 24.5479C17.5565 24.5202 17.5263 24.4837 17.5055 24.4415C17.4847 24.3992 17.4739 24.3524 17.4739 24.3049C17.4739 24.2574 17.4847 24.2106 17.5055 24.1684C17.5263 24.1261 17.5565 24.0897 17.5934 24.062L28.6094 13.6866C29.1111 13.2231 28.5019 12.9989 27.8425 13.4175L14.017 22.5146C13.9751 22.5432 13.9275 22.5613 13.8778 22.5678C13.8281 22.5743 13.7777 22.5689 13.7303 22.552L7.8604 20.616C6.55597 20.2198 6.55597 19.2854 8.15425 18.6201L31.6411 9.17163C31.8277 9.07917 32.0298 9.02584 32.236 9.01465Z" stroke="#111111" stroke-width="1.10476" stroke-linecap="round" stroke-linejoin="round"/>
</svg>
